<svg width="200" height="185" viewBox="0 0 200 185" fill="none" xmlns="http://www.w3.org/2000/svg">
<mask id="path-1-outside-1_1159_53" maskUnits="userSpaceOnUse" x="0" y="0" width="200" height="185" fill="black">
<rect fill="white" width="200" height="185"/>
<path d="M164.633 68.9036C171.126 69.0578 177.451 71.2118 182.284 75.6344C182.574 75.9013 182.856 76.1748 183.132 76.4549C183.408 76.7356 183.676 77.0229 183.938 77.3169C184.2 77.6108 184.454 77.911 184.701 78.2174C184.948 78.5239 185.187 78.8359 185.419 79.1535C185.65 79.4718 185.874 79.7957 186.089 80.1252C186.305 80.4541 186.512 80.7882 186.711 81.1276C186.91 81.467 187.1 81.811 187.282 82.1596C187.465 82.5082 187.638 82.8615 187.802 83.2193C187.967 83.5765 188.123 83.9376 188.27 84.3027C188.417 84.6678 188.554 85.0362 188.683 85.4079C188.812 85.7795 188.932 86.1542 189.042 86.5318C189.152 86.9094 189.253 87.2897 189.344 87.6725C189.436 88.0548 189.518 88.4393 189.59 88.8261C189.663 89.213 189.726 89.6011 189.779 89.9906C189.833 90.3807 189.876 90.7719 189.911 91.164C189.945 91.5554 189.969 91.9479 189.984 92.3413C190.078 94.8363 189.758 97.2226 189.163 99.6395C188.326 103.043 187.099 106.399 186.018 109.734L179.731 128.911L173.949 146.854C172.729 150.638 171.642 154.552 170.051 158.197C168.793 161.079 167.125 163.758 164.967 166.055C159.729 171.629 153.352 174.16 145.752 174.402C136.326 174.702 126.835 174.414 117.398 174.434L104.097 174.465C99.8442 174.48 95.3702 174.709 91.1947 173.828C90.6774 173.72 90.1646 173.593 89.6566 173.449C89.1478 173.305 88.645 173.143 88.1481 172.965C87.6505 172.787 87.1596 172.591 86.6752 172.379C86.1915 172.167 85.7153 171.939 85.2468 171.694C84.7782 171.45 84.3189 171.189 83.8688 170.913C83.418 170.637 82.9772 170.346 82.5462 170.039C82.1158 169.734 81.6961 169.413 81.2868 169.079C80.8782 168.743 80.4815 168.395 80.0966 168.033C75.7748 163.92 73.1454 157.836 73.0713 151.878C73.0686 151.501 73.0749 151.123 73.0901 150.746C73.1059 150.369 73.1309 149.992 73.1652 149.616C73.1988 149.24 73.2416 148.865 73.2937 148.491C73.3457 148.117 73.407 147.745 73.4776 147.374C73.5481 147.003 73.6275 146.633 73.7158 146.266C73.8041 145.899 73.901 145.534 74.0064 145.171C74.1125 144.809 74.2275 144.449 74.3514 144.093C74.4746 143.736 74.6064 143.382 74.7468 143.032C74.8878 142.682 75.0371 142.335 75.1946 141.991C75.3521 141.648 75.5178 141.309 75.6918 140.974C75.8658 140.639 76.048 140.308 76.2385 139.982C76.4283 139.656 76.6263 139.334 76.8326 139.018C77.0382 138.701 77.2514 138.389 77.4721 138.083C77.6929 137.777 77.9212 137.476 78.1572 137.181C78.3924 136.886 78.635 136.597 78.8847 136.313C79.1345 136.03 79.3908 135.753 79.6538 135.482C84.9641 130.091 91.2807 128.583 98.565 128.535C111.254 128.577 124.017 128.214 136.694 128.539C139.351 128.607 141.836 129.645 143.657 131.612C145.331 133.42 146.139 135.839 146.034 138.287C146.024 138.523 146.005 138.757 145.977 138.99C145.949 139.224 145.913 139.456 145.867 139.687C145.823 139.918 145.769 140.147 145.707 140.374C145.645 140.602 145.575 140.826 145.497 141.047C145.418 141.269 145.331 141.488 145.236 141.704C145.141 141.919 145.039 142.131 144.928 142.338C144.818 142.546 144.7 142.749 144.574 142.948C144.449 143.147 144.316 143.342 144.176 143.531C144.036 143.721 143.89 143.904 143.736 144.082C143.583 144.261 143.423 144.433 143.257 144.6C143.09 144.766 142.918 144.926 142.74 145.08C142.562 145.234 142.378 145.381 142.189 145.521C142 145.661 141.806 145.794 141.607 145.92C141.409 146.046 141.206 146.164 140.998 146.275C140.79 146.386 140.579 146.489 140.363 146.584C140.148 146.679 139.929 146.766 139.708 146.845C136.323 148.088 131.856 147.577 128.283 147.577L108.021 147.564C104.112 147.537 99.8076 147.141 95.9435 147.677C94.9184 147.82 93.7213 148.178 92.9829 148.936C92.3394 149.595 92.2346 150.378 92.2573 151.257C92.287 152.358 92.4145 153.68 93.3101 154.446C94.2393 155.238 95.7942 155.458 96.9715 155.556C99.428 155.759 101.982 155.615 104.449 155.598C108.811 155.561 113.173 155.547 117.536 155.556L134.527 155.594C137.977 155.602 141.483 155.733 144.923 155.483C147.307 155.31 149.564 154.837 151.179 152.921C152.138 151.784 152.79 150.292 153.307 148.911C154.402 145.98 155.238 142.919 156.191 139.936L161.215 124.484C164.241 115.201 167.692 105.873 170.277 96.4673C170.642 95.1408 171.086 93.5769 170.94 92.199C170.342 86.5526 161.541 89.1 157.602 85.9397C155.635 84.362 154.233 81.8453 154.009 79.3295C153.785 76.8206 154.672 74.3612 156.304 72.4633C158.596 69.7982 161.292 69.1241 164.633 68.9036Z"/>
<path d="M100.103 10.079C100.246 10.0637 100.388 10.0507 100.531 10.0437C101.213 10.0123 101.894 9.99783 102.575 10.0003C103.258 10.0028 103.939 10.0222 104.62 10.0586C105.301 10.095 105.981 10.1482 106.659 10.2184C107.337 10.2886 108.013 10.3756 108.687 10.4794C109.362 10.5832 110.032 10.7037 110.7 10.8409C111.368 10.978 112.033 11.1317 112.693 11.3019C113.353 11.4721 114.009 11.6586 114.66 11.8614C115.311 12.0642 115.957 12.2831 116.597 12.518C117.237 12.7529 117.871 13.0035 118.498 13.27C119.126 13.5364 119.747 13.8183 120.361 14.1155C120.974 14.4128 121.58 14.7252 122.179 15.0527C122.776 15.3801 123.366 15.7221 123.947 16.0789C124.528 16.4357 125.1 16.8066 125.663 17.1918C126.226 17.577 126.779 17.9759 127.321 18.3886C127.864 18.8013 128.396 19.2272 128.918 19.6663C129.44 20.1055 129.95 20.5574 130.45 21.0219C139.145 29.1304 143.171 39.4907 143.575 51.229C143.707 55.0358 143.826 58.6883 141.007 61.644C139.201 63.537 136.81 64.6649 134.179 64.6708C132.217 64.6758 130.189 64.1449 128.592 62.9775C123.48 59.2399 125.227 52.0999 124.069 46.6561C123.96 46.1283 123.832 45.6047 123.685 45.0854C123.538 44.5667 123.373 44.054 123.189 43.5473C123.005 43.0405 122.803 42.541 122.582 42.049C122.362 41.5569 122.124 41.0734 121.868 40.5986C121.613 40.1238 121.341 39.6589 121.052 39.2039C120.762 38.7489 120.457 38.305 120.135 37.8722C119.814 37.4394 119.477 37.0188 119.124 36.6105C118.772 36.2021 118.406 35.8071 118.025 35.4254C117.764 35.1715 117.497 34.9242 117.223 34.6836C116.95 34.4428 116.671 34.209 116.386 33.9822C116.101 33.7553 115.811 33.5356 115.515 33.3232C115.219 33.1107 114.918 32.9057 114.613 32.7081C114.307 32.5105 113.996 32.3207 113.68 32.1385C113.365 31.9564 113.046 31.7821 112.722 31.6158C112.397 31.4495 112.069 31.2912 111.738 31.1411C111.406 30.9911 111.07 30.8493 110.732 30.7159C110.393 30.5823 110.051 30.4573 109.706 30.3408C109.361 30.2243 109.013 30.1164 108.663 30.0172C108.312 29.9179 107.96 29.8273 107.605 29.7454C107.25 29.6636 106.893 29.5907 106.534 29.5265C106.176 29.4624 105.816 29.4071 105.455 29.3608C105.094 29.3145 104.732 29.2772 104.369 29.2488C104.006 29.2205 103.642 29.2011 103.278 29.1907C102.914 29.1803 102.55 29.179 102.186 29.1867C96.1956 29.2633 90.6955 31.5654 86.52 35.8727C80.495 42.086 80.239 49.1343 80.24 57.2026C80.2387 61.123 80.269 65.0431 80.3309 68.9629L105.218 68.9105C112.217 68.9076 120.035 68.1642 126.847 69.9198C127.417 70.0661 127.981 70.2305 128.54 70.4131C129.099 70.5963 129.651 70.7973 130.196 71.0161C130.741 71.2355 131.279 71.4724 131.81 71.7268C132.34 71.9812 132.861 72.2527 133.373 72.5414C133.885 72.8293 134.388 73.1341 134.88 73.4557C135.372 73.7773 135.853 74.1144 136.323 74.467C136.794 74.8202 137.252 75.1883 137.698 75.5712C138.144 75.954 138.577 76.3511 138.997 76.7623C139.302 77.0575 139.599 77.3604 139.889 77.6707C140.178 77.9805 140.46 78.2975 140.734 78.6217C141.008 78.9459 141.273 79.2764 141.531 79.6132C141.788 79.9506 142.038 80.2939 142.279 80.6432C142.52 80.9925 142.751 81.3477 142.974 81.7088C143.197 82.07 143.412 82.436 143.617 82.8071C143.822 83.1787 144.017 83.555 144.204 83.9359C144.39 84.3175 144.567 84.703 144.735 85.0925C144.902 85.4826 145.06 85.8764 145.208 86.2738C145.356 86.6718 145.494 87.0728 145.622 87.4768C145.75 87.8814 145.868 88.289 145.976 88.6996C146.084 89.1095 146.182 89.522 146.271 89.9372C146.358 90.3524 146.435 90.7695 146.502 91.1887C146.569 91.6078 146.626 92.0283 146.672 92.45C146.719 92.8718 146.755 93.2945 146.78 93.7183C146.805 94.1414 146.821 94.5651 146.825 94.9895C146.83 95.4166 146.824 95.8433 146.807 96.2696C146.791 96.696 146.764 97.1217 146.727 97.5468C146.69 97.9719 146.642 98.3959 146.583 98.819C146.524 99.2414 146.456 99.6625 146.376 100.082C146.297 100.501 146.208 100.919 146.108 101.334C146.007 101.748 145.897 102.161 145.777 102.57C145.657 102.98 145.526 103.386 145.386 103.789C145.246 104.192 145.095 104.591 144.935 104.986C144.775 105.382 144.605 105.774 144.426 106.161C144.246 106.548 144.057 106.931 143.859 107.308C143.66 107.686 143.453 108.059 143.236 108.426C143.019 108.794 142.792 109.156 142.558 109.513C142.323 109.869 142.08 110.22 141.827 110.564C141.576 110.908 141.315 111.246 141.045 111.578C140.777 111.909 140.5 112.233 140.215 112.551C139.93 112.869 139.638 113.179 139.337 113.483C133.901 119.023 127.18 121.14 119.552 121.216C115.217 121.259 105.638 121.84 101.83 120.835C100.209 120.408 98.7291 119.497 97.5479 118.314C95.7952 116.561 94.957 114.038 94.9985 111.579C95.0064 111.128 95.0459 110.68 95.1171 110.235C95.1876 109.79 95.2888 109.352 95.4206 108.921C95.5517 108.49 95.7125 108.07 95.903 107.66C96.0928 107.252 96.3102 106.858 96.5554 106.48C102.179 97.7939 119.42 106.316 125.809 100.074C127.142 98.7735 127.973 96.8341 127.973 94.9697C127.974 93.0817 126.997 91.3775 125.686 90.0736C124.546 88.9398 123.227 88.3279 121.635 88.1451C118.824 87.8218 115.739 88.0531 112.899 88.0521L39.702 88.0551C37.298 88.0235 34.4067 87.7022 32.1204 88.4881C30.8757 88.9161 29.7836 89.78 29.2193 90.99C28.6342 92.2444 29.0527 94.2244 29.347 95.5115C30.858 102.116 33.7413 109.637 35.8496 116.219C39.1633 126.565 42.1861 137.083 46.0769 147.226C47.8444 139.305 50.8623 131.544 53.4463 123.847C55.3146 118.285 56.9219 112.464 59.1451 107.043C59.6888 105.718 60.3432 104.342 61.2309 103.21C62.6958 101.342 64.9378 100.217 67.2835 99.9884C67.6038 99.9581 67.9247 99.9439 68.2463 99.9459C68.5679 99.9486 68.8889 99.967 69.2091 100.001C69.5288 100.036 69.8461 100.086 70.1611 100.153C70.4754 100.219 70.7858 100.301 71.0923 100.399C71.3994 100.496 71.7002 100.609 71.9948 100.737C72.29 100.865 72.578 101.008 72.8587 101.165C73.1395 101.322 73.4117 101.492 73.6753 101.677C73.9389 101.861 74.1926 102.059 74.4364 102.269C76.3373 103.883 77.6204 106.262 77.7727 108.768C77.8646 110.279 77.3061 112.172 76.8899 113.635C74.2407 122.947 70.7196 132.16 67.6424 141.349C65.1207 148.878 62.5594 157.938 59.5573 165.117C58.8377 166.838 57.8946 168.417 56.6194 169.784C53.904 172.697 50.1743 174.302 46.2104 174.441C42.1338 174.585 38.1452 173.228 35.1663 170.405C33.6458 168.964 32.527 167.233 31.703 165.313C30.2709 161.978 29.3113 158.309 28.2097 154.848L15.5309 115.011C14.0141 110.333 12.2966 105.649 11.0647 100.891C10.4575 98.5462 10.0464 96.151 10.004 93.7252C9.88952 87.1654 12.2407 80.9388 16.8222 76.2176C24.5359 68.268 34.2734 68.8661 44.4587 68.8967C50.1012 68.9362 55.7436 68.9148 61.3861 68.8325C61.1182 65.1245 61.3248 61.2644 61.3267 57.5416C61.3356 44.4676 62.2382 35.0979 70.9954 24.6482C78.4537 15.749 88.672 11.1123 100.103 10.079Z"/>
</mask>
<path d="M164.633 68.9036C171.126 69.0578 177.451 71.2118 182.284 75.6344C182.574 75.9013 182.856 76.1748 183.132 76.4549C183.408 76.7356 183.676 77.0229 183.938 77.3169C184.2 77.6108 184.454 77.911 184.701 78.2174C184.948 78.5239 185.187 78.8359 185.419 79.1535C185.65 79.4718 185.874 79.7957 186.089 80.1252C186.305 80.4541 186.512 80.7882 186.711 81.1276C186.91 81.467 187.1 81.811 187.282 82.1596C187.465 82.5082 187.638 82.8615 187.802 83.2193C187.967 83.5765 188.123 83.9376 188.27 84.3027C188.417 84.6678 188.554 85.0362 188.683 85.4079C188.812 85.7795 188.932 86.1542 189.042 86.5318C189.152 86.9094 189.253 87.2897 189.344 87.6725C189.436 88.0548 189.518 88.4393 189.59 88.8261C189.663 89.213 189.726 89.6011 189.779 89.9906C189.833 90.3807 189.876 90.7719 189.911 91.164C189.945 91.5554 189.969 91.9479 189.984 92.3413C190.078 94.8363 189.758 97.2226 189.163 99.6395C188.326 103.043 187.099 106.399 186.018 109.734L179.731 128.911L173.949 146.854C172.729 150.638 171.642 154.552 170.051 158.197C168.793 161.079 167.125 163.758 164.967 166.055C159.729 171.629 153.352 174.16 145.752 174.402C136.326 174.702 126.835 174.414 117.398 174.434L104.097 174.465C99.8442 174.48 95.3702 174.709 91.1947 173.828C90.6774 173.72 90.1646 173.593 89.6566 173.449C89.1478 173.305 88.645 173.143 88.1481 172.965C87.6505 172.787 87.1596 172.591 86.6752 172.379C86.1915 172.167 85.7153 171.939 85.2468 171.694C84.7782 171.45 84.3189 171.189 83.8688 170.913C83.418 170.637 82.9772 170.346 82.5462 170.039C82.1158 169.734 81.6961 169.413 81.2868 169.079C80.8782 168.743 80.4815 168.395 80.0966 168.033C75.7748 163.92 73.1454 157.836 73.0713 151.878C73.0686 151.501 73.0749 151.123 73.0901 150.746C73.1059 150.369 73.1309 149.992 73.1652 149.616C73.1988 149.24 73.2416 148.865 73.2937 148.491C73.3457 148.117 73.407 147.745 73.4776 147.374C73.5481 147.003 73.6275 146.633 73.7158 146.266C73.8041 145.899 73.901 145.534 74.0064 145.171C74.1125 144.809 74.2275 144.449 74.3514 144.093C74.4746 143.736 74.6064 143.382 74.7468 143.032C74.8878 142.682 75.0371 142.335 75.1946 141.991C75.3521 141.648 75.5178 141.309 75.6918 140.974C75.8658 140.639 76.048 140.308 76.2385 139.982C76.4283 139.656 76.6263 139.334 76.8326 139.018C77.0382 138.701 77.2514 138.389 77.4721 138.083C77.6929 137.777 77.9212 137.476 78.1572 137.181C78.3924 136.886 78.635 136.597 78.8847 136.313C79.1345 136.03 79.3908 135.753 79.6538 135.482C84.9641 130.091 91.2807 128.583 98.565 128.535C111.254 128.577 124.017 128.214 136.694 128.539C139.351 128.607 141.836 129.645 143.657 131.612C145.331 133.42 146.139 135.839 146.034 138.287C146.024 138.523 146.005 138.757 145.977 138.99C145.949 139.224 145.913 139.456 145.867 139.687C145.823 139.918 145.769 140.147 145.707 140.374C145.645 140.602 145.575 140.826 145.497 141.047C145.418 141.269 145.331 141.488 145.236 141.704C145.141 141.919 145.039 142.131 144.928 142.338C144.818 142.546 144.7 142.749 144.574 142.948C144.449 143.147 144.316 143.342 144.176 143.531C144.036 143.721 143.89 143.904 143.736 144.082C143.583 144.261 143.423 144.433 143.257 144.6C143.09 144.766 142.918 144.926 142.74 145.08C142.562 145.234 142.378 145.381 142.189 145.521C142 145.661 141.806 145.794 141.607 145.92C141.409 146.046 141.206 146.164 140.998 146.275C140.79 146.386 140.579 146.489 140.363 146.584C140.148 146.679 139.929 146.766 139.708 146.845C136.323 148.088 131.856 147.577 128.283 147.577L108.021 147.564C104.112 147.537 99.8076 147.141 95.9435 147.677C94.9184 147.82 93.7213 148.178 92.9829 148.936C92.3394 149.595 92.2346 150.378 92.2573 151.257C92.287 152.358 92.4145 153.68 93.3101 154.446C94.2393 155.238 95.7942 155.458 96.9715 155.556C99.428 155.759 101.982 155.615 104.449 155.598C108.811 155.561 113.173 155.547 117.536 155.556L134.527 155.594C137.977 155.602 141.483 155.733 144.923 155.483C147.307 155.31 149.564 154.837 151.179 152.921C152.138 151.784 152.79 150.292 153.307 148.911C154.402 145.98 155.238 142.919 156.191 139.936L161.215 124.484C164.241 115.201 167.692 105.873 170.277 96.4673C170.642 95.1408 171.086 93.5769 170.94 92.199C170.342 86.5526 161.541 89.1 157.602 85.9397C155.635 84.362 154.233 81.8453 154.009 79.3295C153.785 76.8206 154.672 74.3612 156.304 72.4633C158.596 69.7982 161.292 69.1241 164.633 68.9036Z" fill="#44E379"/>
<path d="M100.103 10.079C100.246 10.0637 100.388 10.0507 100.531 10.0437C101.213 10.0123 101.894 9.99783 102.575 10.0003C103.258 10.0028 103.939 10.0222 104.62 10.0586C105.301 10.095 105.981 10.1482 106.659 10.2184C107.337 10.2886 108.013 10.3756 108.687 10.4794C109.362 10.5832 110.032 10.7037 110.7 10.8409C111.368 10.978 112.033 11.1317 112.693 11.3019C113.353 11.4721 114.009 11.6586 114.66 11.8614C115.311 12.0642 115.957 12.2831 116.597 12.518C117.237 12.7529 117.871 13.0035 118.498 13.27C119.126 13.5364 119.747 13.8183 120.361 14.1155C120.974 14.4128 121.58 14.7252 122.179 15.0527C122.776 15.3801 123.366 15.7221 123.947 16.0789C124.528 16.4357 125.1 16.8066 125.663 17.1918C126.226 17.577 126.779 17.9759 127.321 18.3886C127.864 18.8013 128.396 19.2272 128.918 19.6663C129.44 20.1055 129.95 20.5574 130.45 21.0219C139.145 29.1304 143.171 39.4907 143.575 51.229C143.707 55.0358 143.826 58.6883 141.007 61.644C139.201 63.537 136.81 64.6649 134.179 64.6708C132.217 64.6758 130.189 64.1449 128.592 62.9775C123.48 59.2399 125.227 52.0999 124.069 46.6561C123.96 46.1283 123.832 45.6047 123.685 45.0854C123.538 44.5667 123.373 44.054 123.189 43.5473C123.005 43.0405 122.803 42.541 122.582 42.049C122.362 41.5569 122.124 41.0734 121.868 40.5986C121.613 40.1238 121.341 39.6589 121.052 39.2039C120.762 38.7489 120.457 38.305 120.135 37.8722C119.814 37.4394 119.477 37.0188 119.124 36.6105C118.772 36.2021 118.406 35.8071 118.025 35.4254C117.764 35.1715 117.497 34.9242 117.223 34.6836C116.95 34.4428 116.671 34.209 116.386 33.9822C116.101 33.7553 115.811 33.5356 115.515 33.3232C115.219 33.1107 114.918 32.9057 114.613 32.7081C114.307 32.5105 113.996 32.3207 113.68 32.1385C113.365 31.9564 113.046 31.7821 112.722 31.6158C112.397 31.4495 112.069 31.2912 111.738 31.1411C111.406 30.9911 111.07 30.8493 110.732 30.7159C110.393 30.5823 110.051 30.4573 109.706 30.3408C109.361 30.2243 109.013 30.1164 108.663 30.0172C108.312 29.9179 107.96 29.8273 107.605 29.7454C107.25 29.6636 106.893 29.5907 106.534 29.5265C106.176 29.4624 105.816 29.4071 105.455 29.3608C105.094 29.3145 104.732 29.2772 104.369 29.2488C104.006 29.2205 103.642 29.2011 103.278 29.1907C102.914 29.1803 102.55 29.179 102.186 29.1867C96.1956 29.2633 90.6955 31.5654 86.52 35.8727C80.495 42.086 80.239 49.1343 80.24 57.2026C80.2387 61.123 80.269 65.0431 80.3309 68.9629L105.218 68.9105C112.217 68.9076 120.035 68.1642 126.847 69.9198C127.417 70.0661 127.981 70.2305 128.54 70.4131C129.099 70.5963 129.651 70.7973 130.196 71.0161C130.741 71.2355 131.279 71.4724 131.81 71.7268C132.34 71.9812 132.861 72.2527 133.373 72.5414C133.885 72.8293 134.388 73.1341 134.88 73.4557C135.372 73.7773 135.853 74.1144 136.323 74.467C136.794 74.8202 137.252 75.1883 137.698 75.5712C138.144 75.954 138.577 76.3511 138.997 76.7623C139.302 77.0575 139.599 77.3604 139.889 77.6707C140.178 77.9805 140.46 78.2975 140.734 78.6217C141.008 78.9459 141.273 79.2764 141.531 79.6132C141.788 79.9506 142.038 80.2939 142.279 80.6432C142.52 80.9925 142.751 81.3477 142.974 81.7088C143.197 82.07 143.412 82.436 143.617 82.8071C143.822 83.1787 144.017 83.555 144.204 83.9359C144.39 84.3175 144.567 84.703 144.735 85.0925C144.902 85.4826 145.06 85.8764 145.208 86.2738C145.356 86.6718 145.494 87.0728 145.622 87.4768C145.75 87.8814 145.868 88.289 145.976 88.6996C146.084 89.1095 146.182 89.522 146.271 89.9372C146.358 90.3524 146.435 90.7695 146.502 91.1887C146.569 91.6078 146.626 92.0283 146.672 92.45C146.719 92.8718 146.755 93.2945 146.78 93.7183C146.805 94.1414 146.821 94.5651 146.825 94.9895C146.83 95.4166 146.824 95.8433 146.807 96.2696C146.791 96.696 146.764 97.1217 146.727 97.5468C146.69 97.9719 146.642 98.3959 146.583 98.819C146.524 99.2414 146.456 99.6625 146.376 100.082C146.297 100.501 146.208 100.919 146.108 101.334C146.007 101.748 145.897 102.161 145.777 102.57C145.657 102.98 145.526 103.386 145.386 103.789C145.246 104.192 145.095 104.591 144.935 104.986C144.775 105.382 144.605 105.774 144.426 106.161C144.246 106.548 144.057 106.931 143.859 107.308C143.66 107.686 143.453 108.059 143.236 108.426C143.019 108.794 142.792 109.156 142.558 109.513C142.323 109.869 142.08 110.22 141.827 110.564C141.576 110.908 141.315 111.246 141.045 111.578C140.777 111.909 140.5 112.233 140.215 112.551C139.93 112.869 139.638 113.179 139.337 113.483C133.901 119.023 127.18 121.14 119.552 121.216C115.217 121.259 105.638 121.84 101.83 120.835C100.209 120.408 98.7291 119.497 97.5479 118.314C95.7952 116.561 94.957 114.038 94.9985 111.579C95.0064 111.128 95.0459 110.68 95.1171 110.235C95.1876 109.79 95.2888 109.352 95.4206 108.921C95.5517 108.49 95.7125 108.07 95.903 107.66C96.0928 107.252 96.3102 106.858 96.5554 106.48C102.179 97.7939 119.42 106.316 125.809 100.074C127.142 98.7735 127.973 96.8341 127.973 94.9697C127.974 93.0817 126.997 91.3775 125.686 90.0736C124.546 88.9398 123.227 88.3279 121.635 88.1451C118.824 87.8218 115.739 88.0531 112.899 88.0521L39.702 88.0551C37.298 88.0235 34.4067 87.7022 32.1204 88.4881C30.8757 88.9161 29.7836 89.78 29.2193 90.99C28.6342 92.2444 29.0527 94.2244 29.347 95.5115C30.858 102.116 33.7413 109.637 35.8496 116.219C39.1633 126.565 42.1861 137.083 46.0769 147.226C47.8444 139.305 50.8623 131.544 53.4463 123.847C55.3146 118.285 56.9219 112.464 59.1451 107.043C59.6888 105.718 60.3432 104.342 61.2309 103.21C62.6958 101.342 64.9378 100.217 67.2835 99.9884C67.6038 99.9581 67.9247 99.9439 68.2463 99.9459C68.5679 99.9486 68.8889 99.967 69.2091 100.001C69.5288 100.036 69.8461 100.086 70.1611 100.153C70.4754 100.219 70.7858 100.301 71.0923 100.399C71.3994 100.496 71.7002 100.609 71.9948 100.737C72.29 100.865 72.578 101.008 72.8587 101.165C73.1395 101.322 73.4117 101.492 73.6753 101.677C73.9389 101.861 74.1926 102.059 74.4364 102.269C76.3373 103.883 77.6204 106.262 77.7727 108.768C77.8646 110.279 77.3061 112.172 76.8899 113.635C74.2407 122.947 70.7196 132.16 67.6424 141.349C65.1207 148.878 62.5594 157.938 59.5573 165.117C58.8377 166.838 57.8946 168.417 56.6194 169.784C53.904 172.697 50.1743 174.302 46.2104 174.441C42.1338 174.585 38.1452 173.228 35.1663 170.405C33.6458 168.964 32.527 167.233 31.703 165.313C30.2709 161.978 29.3113 158.309 28.2097 154.848L15.5309 115.011C14.0141 110.333 12.2966 105.649 11.0647 100.891C10.4575 98.5462 10.0464 96.151 10.004 93.7252C9.88952 87.1654 12.2407 80.9388 16.8222 76.2176C24.5359 68.268 34.2734 68.8661 44.4587 68.8967C50.1012 68.9362 55.7436 68.9148 61.3861 68.8325C61.1182 65.1245 61.3248 61.2644 61.3267 57.5416C61.3356 44.4676 62.2382 35.0979 70.9954 24.6482C78.4537 15.749 88.672 11.1123 100.103 10.079Z" fill="#44E379"/>
<path d="M164.633 68.9036C171.126 69.0578 177.451 71.2118 182.284 75.6344C182.574 75.9013 182.856 76.1748 183.132 76.4549C183.408 76.7356 183.676 77.0229 183.938 77.3169C184.2 77.6108 184.454 77.911 184.701 78.2174C184.948 78.5239 185.187 78.8359 185.419 79.1535C185.65 79.4718 185.874 79.7957 186.089 80.1252C186.305 80.4541 186.512 80.7882 186.711 81.1276C186.91 81.467 187.1 81.811 187.282 82.1596C187.465 82.5082 187.638 82.8615 187.802 83.2193C187.967 83.5765 188.123 83.9376 188.27 84.3027C188.417 84.6678 188.554 85.0362 188.683 85.4079C188.812 85.7795 188.932 86.1542 189.042 86.5318C189.152 86.9094 189.253 87.2897 189.344 87.6725C189.436 88.0548 189.518 88.4393 189.59 88.8261C189.663 89.213 189.726 89.6011 189.779 89.9906C189.833 90.3807 189.876 90.7719 189.911 91.164C189.945 91.5554 189.969 91.9479 189.984 92.3413C190.078 94.8363 189.758 97.2226 189.163 99.6395C188.326 103.043 187.099 106.399 186.018 109.734L179.731 128.911L173.949 146.854C172.729 150.638 171.642 154.552 170.051 158.197C168.793 161.079 167.125 163.758 164.967 166.055C159.729 171.629 153.352 174.16 145.752 174.402C136.326 174.702 126.835 174.414 117.398 174.434L104.097 174.465C99.8442 174.48 95.3702 174.709 91.1947 173.828C90.6774 173.72 90.1646 173.593 89.6566 173.449C89.1478 173.305 88.645 173.143 88.1481 172.965C87.6505 172.787 87.1596 172.591 86.6752 172.379C86.1915 172.167 85.7153 171.939 85.2468 171.694C84.7782 171.45 84.3189 171.189 83.8688 170.913C83.418 170.637 82.9772 170.346 82.5462 170.039C82.1158 169.734 81.6961 169.413 81.2868 169.079C80.8782 168.743 80.4815 168.395 80.0966 168.033C75.7748 163.92 73.1454 157.836 73.0713 151.878C73.0686 151.501 73.0749 151.123 73.0901 150.746C73.1059 150.369 73.1309 149.992 73.1652 149.616C73.1988 149.24 73.2416 148.865 73.2937 148.491C73.3457 148.117 73.407 147.745 73.4776 147.374C73.5481 147.003 73.6275 146.633 73.7158 146.266C73.8041 145.899 73.901 145.534 74.0064 145.171C74.1125 144.809 74.2275 144.449 74.3514 144.093C74.4746 143.736 74.6064 143.382 74.7468 143.032C74.8878 142.682 75.0371 142.335 75.1946 141.991C75.3521 141.648 75.5178 141.309 75.6918 140.974C75.8658 140.639 76.048 140.308 76.2385 139.982C76.4283 139.656 76.6263 139.334 76.8326 139.018C77.0382 138.701 77.2514 138.389 77.4721 138.083C77.6929 137.777 77.9212 137.476 78.1572 137.181C78.3924 136.886 78.635 136.597 78.8847 136.313C79.1345 136.03 79.3908 135.753 79.6538 135.482C84.9641 130.091 91.2807 128.583 98.565 128.535C111.254 128.577 124.017 128.214 136.694 128.539C139.351 128.607 141.836 129.645 143.657 131.612C145.331 133.42 146.139 135.839 146.034 138.287C146.024 138.523 146.005 138.757 145.977 138.99C145.949 139.224 145.913 139.456 145.867 139.687C145.823 139.918 145.769 140.147 145.707 140.374C145.645 140.602 145.575 140.826 145.497 141.047C145.418 141.269 145.331 141.488 145.236 141.704C145.141 141.919 145.039 142.131 144.928 142.338C144.818 142.546 144.7 142.749 144.574 142.948C144.449 143.147 144.316 143.342 144.176 143.531C144.036 143.721 143.89 143.904 143.736 144.082C143.583 144.261 143.423 144.433 143.257 144.6C143.09 144.766 142.918 144.926 142.74 145.08C142.562 145.234 142.378 145.381 142.189 145.521C142 145.661 141.806 145.794 141.607 145.92C141.409 146.046 141.206 146.164 140.998 146.275C140.79 146.386 140.579 146.489 140.363 146.584C140.148 146.679 139.929 146.766 139.708 146.845C136.323 148.088 131.856 147.577 128.283 147.577L108.021 147.564C104.112 147.537 99.8076 147.141 95.9435 147.677C94.9184 147.82 93.7213 148.178 92.9829 148.936C92.3394 149.595 92.2346 150.378 92.2573 151.257C92.287 152.358 92.4145 153.68 93.3101 154.446C94.2393 155.238 95.7942 155.458 96.9715 155.556C99.428 155.759 101.982 155.615 104.449 155.598C108.811 155.561 113.173 155.547 117.536 155.556L134.527 155.594C137.977 155.602 141.483 155.733 144.923 155.483C147.307 155.31 149.564 154.837 151.179 152.921C152.138 151.784 152.79 150.292 153.307 148.911C154.402 145.98 155.238 142.919 156.191 139.936L161.215 124.484C164.241 115.201 167.692 105.873 170.277 96.4673C170.642 95.1408 171.086 93.5769 170.94 92.199C170.342 86.5526 161.541 89.1 157.602 85.9397C155.635 84.362 154.233 81.8453 154.009 79.3295C153.785 76.8206 154.672 74.3612 156.304 72.4633C158.596 69.7982 161.292 69.1241 164.633 68.9036Z" stroke="white" stroke-width="20" mask="url(#path-1-outside-1_1159_53)"/>
<path d="M100.103 10.079C100.246 10.0637 100.388 10.0507 100.531 10.0437C101.213 10.0123 101.894 9.99783 102.575 10.0003C103.258 10.0028 103.939 10.0222 104.62 10.0586C105.301 10.095 105.981 10.1482 106.659 10.2184C107.337 10.2886 108.013 10.3756 108.687 10.4794C109.362 10.5832 110.032 10.7037 110.7 10.8409C111.368 10.978 112.033 11.1317 112.693 11.3019C113.353 11.4721 114.009 11.6586 114.66 11.8614C115.311 12.0642 115.957 12.2831 116.597 12.518C117.237 12.7529 117.871 13.0035 118.498 13.27C119.126 13.5364 119.747 13.8183 120.361 14.1155C120.974 14.4128 121.58 14.7252 122.179 15.0527C122.776 15.3801 123.366 15.7221 123.947 16.0789C124.528 16.4357 125.1 16.8066 125.663 17.1918C126.226 17.577 126.779 17.9759 127.321 18.3886C127.864 18.8013 128.396 19.2272 128.918 19.6663C129.44 20.1055 129.95 20.5574 130.45 21.0219C139.145 29.1304 143.171 39.4907 143.575 51.229C143.707 55.0358 143.826 58.6883 141.007 61.644C139.201 63.537 136.81 64.6649 134.179 64.6708C132.217 64.6758 130.189 64.1449 128.592 62.9775C123.48 59.2399 125.227 52.0999 124.069 46.6561C123.96 46.1283 123.832 45.6047 123.685 45.0854C123.538 44.5667 123.373 44.054 123.189 43.5473C123.005 43.0405 122.803 42.541 122.582 42.049C122.362 41.5569 122.124 41.0734 121.868 40.5986C121.613 40.1238 121.341 39.6589 121.052 39.2039C120.762 38.7489 120.457 38.305 120.135 37.8722C119.814 37.4394 119.477 37.0188 119.124 36.6105C118.772 36.2021 118.406 35.8071 118.025 35.4254C117.764 35.1715 117.497 34.9242 117.223 34.6836C116.95 34.4428 116.671 34.209 116.386 33.9822C116.101 33.7553 115.811 33.5356 115.515 33.3232C115.219 33.1107 114.918 32.9057 114.613 32.7081C114.307 32.5105 113.996 32.3207 113.68 32.1385C113.365 31.9564 113.046 31.7821 112.722 31.6158C112.397 31.4495 112.069 31.2912 111.738 31.1411C111.406 30.9911 111.07 30.8493 110.732 30.7159C110.393 30.5823 110.051 30.4573 109.706 30.3408C109.361 30.2243 109.013 30.1164 108.663 30.0172C108.312 29.9179 107.96 29.8273 107.605 29.7454C107.25 29.6636 106.893 29.5907 106.534 29.5265C106.176 29.4624 105.816 29.4071 105.455 29.3608C105.094 29.3145 104.732 29.2772 104.369 29.2488C104.006 29.2205 103.642 29.2011 103.278 29.1907C102.914 29.1803 102.55 29.179 102.186 29.1867C96.1956 29.2633 90.6955 31.5654 86.52 35.8727C80.495 42.086 80.239 49.1343 80.24 57.2026C80.2387 61.123 80.269 65.0431 80.3309 68.9629L105.218 68.9105C112.217 68.9076 120.035 68.1642 126.847 69.9198C127.417 70.0661 127.981 70.2305 128.54 70.4131C129.099 70.5963 129.651 70.7973 130.196 71.0161C130.741 71.2355 131.279 71.4724 131.81 71.7268C132.34 71.9812 132.861 72.2527 133.373 72.5414C133.885 72.8293 134.388 73.1341 134.88 73.4557C135.372 73.7773 135.853 74.1144 136.323 74.467C136.794 74.8202 137.252 75.1883 137.698 75.5712C138.144 75.954 138.577 76.3511 138.997 76.7623C139.302 77.0575 139.599 77.3604 139.889 77.6707C140.178 77.9805 140.46 78.2975 140.734 78.6217C141.008 78.9459 141.273 79.2764 141.531 79.6132C141.788 79.9506 142.038 80.2939 142.279 80.6432C142.52 80.9925 142.751 81.3477 142.974 81.7088C143.197 82.07 143.412 82.436 143.617 82.8071C143.822 83.1787 144.017 83.555 144.204 83.9359C144.39 84.3175 144.567 84.703 144.735 85.0925C144.902 85.4826 145.06 85.8764 145.208 86.2738C145.356 86.6718 145.494 87.0728 145.622 87.4768C145.75 87.8814 145.868 88.289 145.976 88.6996C146.084 89.1095 146.182 89.522 146.271 89.9372C146.358 90.3524 146.435 90.7695 146.502 91.1887C146.569 91.6078 146.626 92.0283 146.672 92.45C146.719 92.8718 146.755 93.2945 146.78 93.7183C146.805 94.1414 146.821 94.5651 146.825 94.9895C146.83 95.4166 146.824 95.8433 146.807 96.2696C146.791 96.696 146.764 97.1217 146.727 97.5468C146.69 97.9719 146.642 98.3959 146.583 98.819C146.524 99.2414 146.456 99.6625 146.376 100.082C146.297 100.501 146.208 100.919 146.108 101.334C146.007 101.748 145.897 102.161 145.777 102.57C145.657 102.98 145.526 103.386 145.386 103.789C145.246 104.192 145.095 104.591 144.935 104.986C144.775 105.382 144.605 105.774 144.426 106.161C144.246 106.548 144.057 106.931 143.859 107.308C143.66 107.686 143.453 108.059 143.236 108.426C143.019 108.794 142.792 109.156 142.558 109.513C142.323 109.869 142.08 110.22 141.827 110.564C141.576 110.908 141.315 111.246 141.045 111.578C140.777 111.909 140.5 112.233 140.215 112.551C139.93 112.869 139.638 113.179 139.337 113.483C133.901 119.023 127.18 121.14 119.552 121.216C115.217 121.259 105.638 121.84 101.83 120.835C100.209 120.408 98.7291 119.497 97.5479 118.314C95.7952 116.561 94.957 114.038 94.9985 111.579C95.0064 111.128 95.0459 110.68 95.1171 110.235C95.1876 109.79 95.2888 109.352 95.4206 108.921C95.5517 108.49 95.7125 108.07 95.903 107.66C96.0928 107.252 96.3102 106.858 96.5554 106.48C102.179 97.7939 119.42 106.316 125.809 100.074C127.142 98.7735 127.973 96.8341 127.973 94.9697C127.974 93.0817 126.997 91.3775 125.686 90.0736C124.546 88.9398 123.227 88.3279 121.635 88.1451C118.824 87.8218 115.739 88.0531 112.899 88.0521L39.702 88.0551C37.298 88.0235 34.4067 87.7022 32.1204 88.4881C30.8757 88.9161 29.7836 89.78 29.2193 90.99C28.6342 92.2444 29.0527 94.2244 29.347 95.5115C30.858 102.116 33.7413 109.637 35.8496 116.219C39.1633 126.565 42.1861 137.083 46.0769 147.226C47.8444 139.305 50.8623 131.544 53.4463 123.847C55.3146 118.285 56.9219 112.464 59.1451 107.043C59.6888 105.718 60.3432 104.342 61.2309 103.21C62.6958 101.342 64.9378 100.217 67.2835 99.9884C67.6038 99.9581 67.9247 99.9439 68.2463 99.9459C68.5679 99.9486 68.8889 99.967 69.2091 100.001C69.5288 100.036 69.8461 100.086 70.1611 100.153C70.4754 100.219 70.7858 100.301 71.0923 100.399C71.3994 100.496 71.7002 100.609 71.9948 100.737C72.29 100.865 72.578 101.008 72.8587 101.165C73.1395 101.322 73.4117 101.492 73.6753 101.677C73.9389 101.861 74.1926 102.059 74.4364 102.269C76.3373 103.883 77.6204 106.262 77.7727 108.768C77.8646 110.279 77.3061 112.172 76.8899 113.635C74.2407 122.947 70.7196 132.16 67.6424 141.349C65.1207 148.878 62.5594 157.938 59.5573 165.117C58.8377 166.838 57.8946 168.417 56.6194 169.784C53.904 172.697 50.1743 174.302 46.2104 174.441C42.1338 174.585 38.1452 173.228 35.1663 170.405C33.6458 168.964 32.527 167.233 31.703 165.313C30.2709 161.978 29.3113 158.309 28.2097 154.848L15.5309 115.011C14.0141 110.333 12.2966 105.649 11.0647 100.891C10.4575 98.5462 10.0464 96.151 10.004 93.7252C9.88952 87.1654 12.2407 80.9388 16.8222 76.2176C24.5359 68.268 34.2734 68.8661 44.4587 68.8967C50.1012 68.9362 55.7436 68.9148 61.3861 68.8325C61.1182 65.1245 61.3248 61.2644 61.3267 57.5416C61.3356 44.4676 62.2382 35.0979 70.9954 24.6482C78.4537 15.749 88.672 11.1123 100.103 10.079Z" stroke="white" stroke-width="20" mask="url(#path-1-outside-1_1159_53)"/>
</svg>
