<svg width="159" height="150" viewBox="0 0 159 150" fill="none" xmlns="http://www.w3.org/2000/svg">
<g id="logo_mealo" filter="url(#filter0_d_1168_144)">
<g id="Vector">
<mask id="path-1-outside-1_1168_144" maskUnits="userSpaceOnUse" x="20" y="16" width="119" height="110" fill="black">
<rect fill="white" x="20" y="16" width="119" height="110"/>
<path d="M117.921 57.0149C121.78 57.1066 125.541 58.387 128.413 61.016C128.585 61.1747 128.753 61.3373 128.918 61.5037C129.081 61.6706 129.241 61.8414 129.396 62.0161C129.552 62.1909 129.703 62.3693 129.85 62.5515C129.997 62.7336 130.139 62.9191 130.277 63.1079C130.414 63.2971 130.547 63.4897 130.675 63.6856C130.803 63.881 130.926 64.0797 131.045 64.2814C131.163 64.4832 131.276 64.6877 131.384 64.8949C131.493 65.1021 131.596 65.3121 131.693 65.5248C131.791 65.7371 131.884 65.9518 131.971 66.1688C132.059 66.3859 132.141 66.6048 132.217 66.8258C132.294 67.0467 132.365 67.2694 132.43 67.4939C132.496 67.7184 132.556 67.9444 132.61 68.172C132.665 68.3992 132.713 68.6278 132.756 68.8578C132.8 69.0877 132.837 69.3185 132.869 69.55C132.9 69.7819 132.927 70.0144 132.947 70.2475C132.967 70.4802 132.982 70.7135 132.99 70.9473C133.046 72.4305 132.856 73.849 132.503 75.2857C132.005 77.3089 131.276 79.3038 130.633 81.2864L126.896 92.6862L123.459 103.352C122.734 105.601 122.087 107.928 121.142 110.095C120.394 111.808 119.402 113.401 118.12 114.766C115.006 118.079 111.215 119.584 106.697 119.728C101.094 119.906 95.4517 119.735 89.8423 119.747L81.9353 119.765C79.4074 119.774 76.7478 119.91 74.2657 119.387C73.9582 119.322 73.6534 119.247 73.3514 119.161C73.049 119.075 72.7501 118.98 72.4547 118.874C72.1589 118.768 71.8671 118.652 71.5791 118.525C71.2916 118.399 71.0086 118.264 70.73 118.118C70.4515 117.973 70.1785 117.818 69.9109 117.654C69.6429 117.49 69.3809 117.317 69.1247 117.135C68.8689 116.953 68.6193 116.762 68.376 116.563C68.1332 116.364 67.8973 116.157 67.6686 115.942C65.0995 113.497 63.5364 109.88 63.4924 106.339C63.4908 106.114 63.4945 105.89 63.5035 105.665C63.5129 105.441 63.5278 105.218 63.5482 104.994C63.5682 104.771 63.5936 104.548 63.6246 104.325C63.6555 104.103 63.692 103.882 63.7339 103.661C63.7758 103.441 63.823 103.221 63.8755 103.002C63.928 102.784 63.9856 102.567 64.0483 102.352C64.1113 102.136 64.1797 101.923 64.2533 101.711C64.3266 101.499 64.4049 101.288 64.4884 101.08C64.5722 100.872 64.6609 100.666 64.7546 100.462C64.8482 100.257 64.9467 100.056 65.0501 99.8569C65.1536 99.6575 65.2619 99.4608 65.3751 99.2669C65.4879 99.073 65.6056 98.882 65.7283 98.694C65.8505 98.5056 65.9772 98.3203 66.1084 98.1381C66.2397 97.9563 66.3754 97.7777 66.5157 97.6022C66.6555 97.4267 66.7997 97.2547 66.9481 97.0863C67.0966 96.9178 67.249 96.7531 67.4053 96.5921C70.562 93.3872 74.3169 92.4911 78.647 92.4623C86.1896 92.4876 93.777 92.2719 101.313 92.4647C102.892 92.5052 104.369 93.1222 105.452 94.2916C106.447 95.3663 106.927 96.8042 106.865 98.2598C106.859 98.3996 106.847 98.5389 106.831 98.6775C106.814 98.8166 106.793 98.9547 106.766 99.0918C106.739 99.2293 106.707 99.3655 106.67 99.5002C106.634 99.6354 106.592 99.7688 106.545 99.9004C106.498 100.032 106.447 100.162 106.39 100.291C106.334 100.419 106.273 100.544 106.207 100.668C106.142 100.791 106.071 100.912 105.997 101.03C105.923 101.149 105.844 101.264 105.76 101.377C105.677 101.489 105.59 101.599 105.499 101.704C105.407 101.811 105.312 101.913 105.214 102.012C105.115 102.111 105.012 102.206 104.906 102.298C104.801 102.389 104.692 102.476 104.579 102.56C104.467 102.643 104.351 102.722 104.233 102.797C104.115 102.872 103.994 102.942 103.871 103.008C103.748 103.074 103.622 103.135 103.494 103.192C103.366 103.248 103.236 103.3 103.104 103.347C101.092 104.085 98.4368 103.782 96.3125 103.782L84.2681 103.774C81.9441 103.758 79.3856 103.522 77.0886 103.842C76.4793 103.926 75.7677 104.139 75.3287 104.59C74.9462 104.982 74.8839 105.447 74.8974 105.969C74.915 106.624 74.9909 107.41 75.5232 107.865C76.0756 108.336 76.9999 108.467 77.6998 108.525C79.16 108.646 80.6784 108.56 82.1445 108.55C84.7374 108.528 87.3306 108.52 89.9239 108.525L100.024 108.548C102.075 108.552 104.16 108.63 106.204 108.481C107.621 108.379 108.963 108.098 109.923 106.959C110.493 106.282 110.881 105.396 111.188 104.575C111.839 102.833 112.336 101.013 112.903 99.2399L115.889 90.0543C117.688 84.536 119.739 78.9912 121.276 73.4C121.492 72.6115 121.757 71.6819 121.67 70.8627C121.314 67.5063 116.083 69.0205 113.741 67.1419C112.572 66.2041 111.739 64.708 111.605 63.2125C111.472 61.7212 112 60.2592 112.97 59.131C114.332 57.5467 115.935 57.146 117.921 57.0149Z"/>
<path d="M79.5613 22.047C79.646 22.0379 79.7306 22.0301 79.8158 22.026C80.2208 22.0073 80.6259 21.9987 81.031 22.0002C81.4364 22.0016 81.8415 22.0132 82.2462 22.0348C82.6512 22.0564 83.0553 22.0881 83.4584 22.1298C83.8615 22.1716 84.2635 22.2233 84.6642 22.285C85.065 22.3467 85.4638 22.4183 85.8606 22.4999C86.2578 22.5814 86.6527 22.6727 87.0452 22.7739C87.4378 22.8751 87.8275 22.9859 88.2146 23.1065C88.6016 23.2271 88.9853 23.3572 89.3657 23.4968C89.7465 23.6364 90.1234 23.7854 90.4963 23.9438C90.8696 24.1022 91.2386 24.2697 91.6034 24.4465C91.9681 24.6232 92.3283 24.8089 92.684 25.0035C93.0393 25.1981 93.3897 25.4015 93.7352 25.6136C94.0808 25.8256 94.4208 26.0462 94.7553 26.2751C95.0899 26.5041 95.4184 26.7412 95.7408 26.9866C96.0636 27.2319 96.3801 27.4851 96.6904 27.7461C97.0002 28.0072 97.3036 28.2758 97.6006 28.5519C102.769 33.3719 105.163 39.5306 105.403 46.5084C105.481 48.7713 105.552 50.9425 103.876 52.6995C102.803 53.8248 101.381 54.4952 99.8177 54.4988C98.6512 54.5017 97.4454 54.1862 96.4965 53.4922C93.4573 51.2704 94.4962 47.026 93.8075 43.79C93.7429 43.4762 93.6669 43.165 93.5795 42.8563C93.4922 42.548 93.3938 42.2432 93.2845 41.942C93.1752 41.6407 93.055 41.3439 92.9237 41.0513C92.7929 40.7588 92.6515 40.4714 92.4995 40.1892C92.3479 39.9069 92.1861 39.6306 92.0141 39.3601C91.8421 39.0896 91.6606 38.8257 91.4694 38.5685C91.2782 38.3112 91.0778 38.0612 90.8683 37.8184C90.6591 37.5757 90.4413 37.3409 90.2148 37.114C90.0597 36.9631 89.9008 36.8161 89.7383 36.673C89.5757 36.5299 89.4098 36.3909 89.2406 36.2561C89.0713 36.1212 88.8988 35.9906 88.7229 35.8643C88.547 35.738 88.3681 35.6162 88.1864 35.4987C88.0046 35.3813 87.8199 35.2684 87.6323 35.1601C87.445 35.0518 87.255 34.9483 87.0623 34.8494C86.8695 34.7505 86.6746 34.6565 86.4776 34.5672C86.2801 34.478 86.0807 34.3938 85.8794 34.3144C85.678 34.2351 85.4747 34.1607 85.2694 34.0915C85.0646 34.0222 84.8579 33.9581 84.6495 33.8991C84.4411 33.8401 84.2315 33.7862 84.0208 33.7376C83.8096 33.6889 83.5975 33.6456 83.3844 33.6074C83.1713 33.5693 82.9574 33.5365 82.7427 33.5089C82.528 33.4814 82.3128 33.4592 82.0969 33.4423C81.8811 33.4255 81.665 33.414 81.4488 33.4078C81.2321 33.4016 81.0157 33.4009 80.7994 33.4054C77.2385 33.451 73.969 34.8194 71.4869 37.3799C67.9054 41.0734 67.7532 45.2632 67.7538 50.0593C67.753 52.3898 67.771 54.7201 67.8078 57.0502L82.6017 57.0191C86.7626 57.0173 91.4095 56.5754 95.4593 57.619C95.7978 57.706 96.1331 57.8037 96.4653 57.9122C96.7975 58.0211 97.1258 58.1406 97.4501 58.2707C97.7741 58.4011 98.0938 58.542 98.4091 58.6932C98.7241 58.8444 99.0338 59.0058 99.3382 59.1774C99.6429 59.3486 99.9416 59.5297 100.234 59.7209C100.527 59.9121 100.813 60.1125 101.092 60.322C101.372 60.532 101.644 60.7508 101.91 60.9784C102.175 61.206 102.432 61.4421 102.682 61.6865C102.863 61.862 103.039 62.042 103.212 62.2265C103.384 62.4106 103.551 62.5991 103.714 62.7918C103.877 62.9845 104.035 63.181 104.188 63.3812C104.341 63.5817 104.489 63.7859 104.633 63.9935C104.776 64.2011 104.913 64.4123 105.046 64.6269C105.178 64.8416 105.306 65.0592 105.428 65.2798C105.549 65.5007 105.666 65.7244 105.777 65.9508C105.888 66.1776 105.993 66.4068 106.092 66.6383C106.192 66.8702 106.286 67.1043 106.374 67.3405C106.461 67.5772 106.544 67.8155 106.62 68.0557C106.696 68.2962 106.766 68.5385 106.83 68.7825C106.895 69.0262 106.953 69.2714 107.005 69.5182C107.057 69.765 107.103 70.013 107.143 70.2622C107.183 70.5113 107.217 70.7613 107.244 71.012C107.272 71.2627 107.293 71.514 107.308 71.7659C107.323 72.0174 107.332 72.2693 107.335 72.5216C107.338 72.7754 107.334 73.0291 107.324 73.2825C107.315 73.536 107.299 73.789 107.277 74.0417C107.255 74.2944 107.226 74.5465 107.191 74.798C107.156 75.0491 107.115 75.2994 107.068 75.549C107.021 75.7981 106.968 76.0461 106.908 76.2929C106.849 76.5393 106.783 76.7843 106.712 77.028C106.64 77.2713 106.563 77.5128 106.479 77.7525C106.396 77.9919 106.307 78.2291 106.212 78.4641C106.116 78.6996 106.015 78.9323 105.909 79.1622C105.802 79.3926 105.69 79.62 105.572 79.8444C105.454 80.0689 105.33 80.2904 105.201 80.509C105.072 80.7276 104.938 80.9429 104.798 81.1548C104.659 81.3668 104.514 81.575 104.364 81.7795C104.214 81.9843 104.059 82.1853 103.899 82.3824C103.739 82.579 103.575 82.7719 103.406 82.9612C103.236 83.15 103.062 83.3345 102.884 83.5147C99.6525 86.8083 95.6567 88.0664 91.1227 88.1116C88.5454 88.1375 82.8514 88.4824 80.5879 87.8854C79.6242 87.6315 78.7445 87.0897 78.0423 86.387C77.0005 85.3445 76.5022 83.8449 76.5269 82.3829C76.5316 82.115 76.5551 81.8488 76.5974 81.5844C76.6393 81.3195 76.6994 81.059 76.7778 80.8028C76.8558 80.5466 76.9513 80.2969 77.0646 80.0536C77.1774 79.8107 77.3066 79.5769 77.4524 79.352C80.7953 74.1886 91.044 79.2545 94.8423 75.5443C95.6344 74.771 96.1286 73.618 96.1286 72.5098C96.1292 71.3875 95.548 70.3744 94.7689 69.5993C94.0913 68.9253 93.3074 68.5616 92.3608 68.4529C90.6896 68.2607 88.8557 68.3982 87.168 68.3977L43.6562 68.3994C42.2272 68.3806 40.5085 68.1896 39.1494 68.6568C38.4094 68.9112 37.7602 69.4248 37.4248 70.1441C37.077 70.8897 37.3257 72.0667 37.5007 72.8318C38.3989 76.7577 40.1129 81.2289 41.3661 85.1412C43.3359 91.2912 47.4457 102.352 47.4457 103.573C48.4964 98.8644 50.2904 94.251 51.8264 89.6758C52.937 86.3693 53.8925 82.9094 55.214 79.687C55.5372 78.899 55.9262 78.081 56.4539 77.4082C57.3248 76.2976 58.6575 75.6289 60.0519 75.4931C60.2423 75.4751 60.433 75.4667 60.6242 75.4679C60.8154 75.4694 61.0062 75.4804 61.1966 75.5008C61.3865 75.5211 61.5752 75.5511 61.7624 75.5907C61.9493 75.6302 62.1338 75.679 62.316 75.737C62.4985 75.795 62.6773 75.862 62.8525 75.938C63.028 76.0143 63.1992 76.0992 63.366 76.1924C63.5329 76.2856 63.6947 76.3871 63.8514 76.4968C64.0081 76.6065 64.1589 76.7238 64.3039 76.8488C65.4339 77.8083 66.1966 79.2221 66.2871 80.7123C66.3417 81.6102 66.0097 82.7355 65.7623 83.6052C64.1875 89.1405 62.0944 94.6171 60.2652 100.08C58.7662 104.555 57.2437 109.941 55.4591 114.208C55.0313 115.231 54.4707 116.17 53.7127 116.983C52.0985 118.714 49.8814 119.668 47.5251 119.751C45.1017 119.836 42.7308 119.03 40.96 117.352C40.0561 116.495 39.391 115.466 38.9012 114.325C38.0499 112.343 37.4795 110.161 36.8246 108.104L29.2878 84.4231C28.3862 81.6425 27.3652 78.8578 26.6329 76.0296C26.272 74.6358 26.0276 73.212 26.0024 71.77C25.9343 67.8706 27.332 64.1692 30.0554 61.3627C34.6408 56.6371 40.4292 56.9926 46.4838 57.0108C49.8379 57.0343 53.192 57.0216 56.5462 56.9726C56.3869 54.7685 56.5097 52.4738 56.5109 50.2609C56.5162 42.4891 57.0527 36.9193 62.2584 30.7075C66.6919 25.4174 72.7661 22.6612 79.5613 22.047Z"/>
</mask>
<path d="M117.921 57.0149C121.78 57.1066 125.541 58.387 128.413 61.016C128.585 61.1747 128.753 61.3373 128.918 61.5037C129.081 61.6706 129.241 61.8414 129.396 62.0161C129.552 62.1909 129.703 62.3693 129.85 62.5515C129.997 62.7336 130.139 62.9191 130.277 63.1079C130.414 63.2971 130.547 63.4897 130.675 63.6856C130.803 63.881 130.926 64.0797 131.045 64.2814C131.163 64.4832 131.276 64.6877 131.384 64.8949C131.493 65.1021 131.596 65.3121 131.693 65.5248C131.791 65.7371 131.884 65.9518 131.971 66.1688C132.059 66.3859 132.141 66.6048 132.217 66.8258C132.294 67.0467 132.365 67.2694 132.43 67.4939C132.496 67.7184 132.556 67.9444 132.61 68.172C132.665 68.3992 132.713 68.6278 132.756 68.8578C132.8 69.0877 132.837 69.3185 132.869 69.55C132.9 69.7819 132.927 70.0144 132.947 70.2475C132.967 70.4802 132.982 70.7135 132.99 70.9473C133.046 72.4305 132.856 73.849 132.503 75.2857C132.005 77.3089 131.276 79.3038 130.633 81.2864L126.896 92.6862L123.459 103.352C122.734 105.601 122.087 107.928 121.142 110.095C120.394 111.808 119.402 113.401 118.12 114.766C115.006 118.079 111.215 119.584 106.697 119.728C101.094 119.906 95.4517 119.735 89.8423 119.747L81.9353 119.765C79.4074 119.774 76.7478 119.91 74.2657 119.387C73.9582 119.322 73.6534 119.247 73.3514 119.161C73.049 119.075 72.7501 118.98 72.4547 118.874C72.1589 118.768 71.8671 118.652 71.5791 118.525C71.2916 118.399 71.0086 118.264 70.73 118.118C70.4515 117.973 70.1785 117.818 69.9109 117.654C69.6429 117.49 69.3809 117.317 69.1247 117.135C68.8689 116.953 68.6193 116.762 68.376 116.563C68.1332 116.364 67.8973 116.157 67.6686 115.942C65.0995 113.497 63.5364 109.88 63.4924 106.339C63.4908 106.114 63.4945 105.89 63.5035 105.665C63.5129 105.441 63.5278 105.218 63.5482 104.994C63.5682 104.771 63.5936 104.548 63.6246 104.325C63.6555 104.103 63.692 103.882 63.7339 103.661C63.7758 103.441 63.823 103.221 63.8755 103.002C63.928 102.784 63.9856 102.567 64.0483 102.352C64.1113 102.136 64.1797 101.923 64.2533 101.711C64.3266 101.499 64.4049 101.288 64.4884 101.08C64.5722 100.872 64.6609 100.666 64.7546 100.462C64.8482 100.257 64.9467 100.056 65.0501 99.8569C65.1536 99.6575 65.2619 99.4608 65.3751 99.2669C65.4879 99.073 65.6056 98.882 65.7283 98.694C65.8505 98.5056 65.9772 98.3203 66.1084 98.1381C66.2397 97.9563 66.3754 97.7777 66.5157 97.6022C66.6555 97.4267 66.7997 97.2547 66.9481 97.0863C67.0966 96.9178 67.249 96.7531 67.4053 96.5921C70.562 93.3872 74.3169 92.4911 78.647 92.4623C86.1896 92.4876 93.777 92.2719 101.313 92.4647C102.892 92.5052 104.369 93.1222 105.452 94.2916C106.447 95.3663 106.927 96.8042 106.865 98.2598C106.859 98.3996 106.847 98.5389 106.831 98.6775C106.814 98.8166 106.793 98.9547 106.766 99.0918C106.739 99.2293 106.707 99.3655 106.67 99.5002C106.634 99.6354 106.592 99.7688 106.545 99.9004C106.498 100.032 106.447 100.162 106.39 100.291C106.334 100.419 106.273 100.544 106.207 100.668C106.142 100.791 106.071 100.912 105.997 101.03C105.923 101.149 105.844 101.264 105.76 101.377C105.677 101.489 105.59 101.599 105.499 101.704C105.407 101.811 105.312 101.913 105.214 102.012C105.115 102.111 105.012 102.206 104.906 102.298C104.801 102.389 104.692 102.476 104.579 102.56C104.467 102.643 104.351 102.722 104.233 102.797C104.115 102.872 103.994 102.942 103.871 103.008C103.748 103.074 103.622 103.135 103.494 103.192C103.366 103.248 103.236 103.3 103.104 103.347C101.092 104.085 98.4368 103.782 96.3125 103.782L84.2681 103.774C81.9441 103.758 79.3856 103.522 77.0886 103.842C76.4793 103.926 75.7677 104.139 75.3287 104.59C74.9462 104.982 74.8839 105.447 74.8974 105.969C74.915 106.624 74.9909 107.41 75.5232 107.865C76.0756 108.336 76.9999 108.467 77.6998 108.525C79.16 108.646 80.6784 108.56 82.1445 108.55C84.7374 108.528 87.3306 108.52 89.9239 108.525L100.024 108.548C102.075 108.552 104.16 108.63 106.204 108.481C107.621 108.379 108.963 108.098 109.923 106.959C110.493 106.282 110.881 105.396 111.188 104.575C111.839 102.833 112.336 101.013 112.903 99.2399L115.889 90.0543C117.688 84.536 119.739 78.9912 121.276 73.4C121.492 72.6115 121.757 71.6819 121.67 70.8627C121.314 67.5063 116.083 69.0205 113.741 67.1419C112.572 66.2041 111.739 64.708 111.605 63.2125C111.472 61.7212 112 60.2592 112.97 59.131C114.332 57.5467 115.935 57.146 117.921 57.0149Z" fill="#80C288"/>
<path d="M79.5613 22.047C79.646 22.0379 79.7306 22.0301 79.8158 22.026C80.2208 22.0073 80.6259 21.9987 81.031 22.0002C81.4364 22.0016 81.8415 22.0132 82.2462 22.0348C82.6512 22.0564 83.0553 22.0881 83.4584 22.1298C83.8615 22.1716 84.2635 22.2233 84.6642 22.285C85.065 22.3467 85.4638 22.4183 85.8606 22.4999C86.2578 22.5814 86.6527 22.6727 87.0452 22.7739C87.4378 22.8751 87.8275 22.9859 88.2146 23.1065C88.6016 23.2271 88.9853 23.3572 89.3657 23.4968C89.7465 23.6364 90.1234 23.7854 90.4963 23.9438C90.8696 24.1022 91.2386 24.2697 91.6034 24.4465C91.9681 24.6232 92.3283 24.8089 92.684 25.0035C93.0393 25.1981 93.3897 25.4015 93.7352 25.6136C94.0808 25.8256 94.4208 26.0462 94.7553 26.2751C95.0899 26.5041 95.4184 26.7412 95.7408 26.9866C96.0636 27.2319 96.3801 27.4851 96.6904 27.7461C97.0002 28.0072 97.3036 28.2758 97.6006 28.5519C102.769 33.3719 105.163 39.5306 105.403 46.5084C105.481 48.7713 105.552 50.9425 103.876 52.6995C102.803 53.8248 101.381 54.4952 99.8177 54.4988C98.6512 54.5017 97.4454 54.1862 96.4965 53.4922C93.4573 51.2704 94.4962 47.026 93.8075 43.79C93.7429 43.4762 93.6669 43.165 93.5795 42.8563C93.4922 42.548 93.3938 42.2432 93.2845 41.942C93.1752 41.6407 93.055 41.3439 92.9237 41.0513C92.7929 40.7588 92.6515 40.4714 92.4995 40.1892C92.3479 39.9069 92.1861 39.6306 92.0141 39.3601C91.8421 39.0896 91.6606 38.8257 91.4694 38.5685C91.2782 38.3112 91.0778 38.0612 90.8683 37.8184C90.6591 37.5757 90.4413 37.3409 90.2148 37.114C90.0597 36.9631 89.9008 36.8161 89.7383 36.673C89.5757 36.5299 89.4098 36.3909 89.2406 36.2561C89.0713 36.1212 88.8988 35.9906 88.7229 35.8643C88.547 35.738 88.3681 35.6162 88.1864 35.4987C88.0046 35.3813 87.8199 35.2684 87.6323 35.1601C87.445 35.0518 87.255 34.9483 87.0623 34.8494C86.8695 34.7505 86.6746 34.6565 86.4776 34.5672C86.2801 34.478 86.0807 34.3938 85.8794 34.3144C85.678 34.2351 85.4747 34.1607 85.2694 34.0915C85.0646 34.0222 84.8579 33.9581 84.6495 33.8991C84.4411 33.8401 84.2315 33.7862 84.0208 33.7376C83.8096 33.6889 83.5975 33.6456 83.3844 33.6074C83.1713 33.5693 82.9574 33.5365 82.7427 33.5089C82.528 33.4814 82.3128 33.4592 82.0969 33.4423C81.8811 33.4255 81.665 33.414 81.4488 33.4078C81.2321 33.4016 81.0157 33.4009 80.7994 33.4054C77.2385 33.451 73.969 34.8194 71.4869 37.3799C67.9054 41.0734 67.7532 45.2632 67.7538 50.0593C67.753 52.3898 67.771 54.7201 67.8078 57.0502L82.6017 57.0191C86.7626 57.0173 91.4095 56.5754 95.4593 57.619C95.7978 57.706 96.1331 57.8037 96.4653 57.9122C96.7975 58.0211 97.1258 58.1406 97.4501 58.2707C97.7741 58.4011 98.0938 58.542 98.4091 58.6932C98.7241 58.8444 99.0338 59.0058 99.3382 59.1774C99.6429 59.3486 99.9416 59.5297 100.234 59.7209C100.527 59.9121 100.813 60.1125 101.092 60.322C101.372 60.532 101.644 60.7508 101.91 60.9784C102.175 61.206 102.432 61.4421 102.682 61.6865C102.863 61.862 103.039 62.042 103.212 62.2265C103.384 62.4106 103.551 62.5991 103.714 62.7918C103.877 62.9845 104.035 63.181 104.188 63.3812C104.341 63.5817 104.489 63.7859 104.633 63.9935C104.776 64.2011 104.913 64.4123 105.046 64.6269C105.178 64.8416 105.306 65.0592 105.428 65.2798C105.549 65.5007 105.666 65.7244 105.777 65.9508C105.888 66.1776 105.993 66.4068 106.092 66.6383C106.192 66.8702 106.286 67.1043 106.374 67.3405C106.461 67.5772 106.544 67.8155 106.62 68.0557C106.696 68.2962 106.766 68.5385 106.83 68.7825C106.895 69.0262 106.953 69.2714 107.005 69.5182C107.057 69.765 107.103 70.013 107.143 70.2622C107.183 70.5113 107.217 70.7613 107.244 71.012C107.272 71.2627 107.293 71.514 107.308 71.7659C107.323 72.0174 107.332 72.2693 107.335 72.5216C107.338 72.7754 107.334 73.0291 107.324 73.2825C107.315 73.536 107.299 73.789 107.277 74.0417C107.255 74.2944 107.226 74.5465 107.191 74.798C107.156 75.0491 107.115 75.2994 107.068 75.549C107.021 75.7981 106.968 76.0461 106.908 76.2929C106.849 76.5393 106.783 76.7843 106.712 77.028C106.64 77.2713 106.563 77.5128 106.479 77.7525C106.396 77.9919 106.307 78.2291 106.212 78.4641C106.116 78.6996 106.015 78.9323 105.909 79.1622C105.802 79.3926 105.69 79.62 105.572 79.8444C105.454 80.0689 105.33 80.2904 105.201 80.509C105.072 80.7276 104.938 80.9429 104.798 81.1548C104.659 81.3668 104.514 81.575 104.364 81.7795C104.214 81.9843 104.059 82.1853 103.899 82.3824C103.739 82.579 103.575 82.7719 103.406 82.9612C103.236 83.15 103.062 83.3345 102.884 83.5147C99.6525 86.8083 95.6567 88.0664 91.1227 88.1116C88.5454 88.1375 82.8514 88.4824 80.5879 87.8854C79.6242 87.6315 78.7445 87.0897 78.0423 86.387C77.0005 85.3445 76.5022 83.8449 76.5269 82.3829C76.5316 82.115 76.5551 81.8488 76.5974 81.5844C76.6393 81.3195 76.6994 81.059 76.7778 80.8028C76.8558 80.5466 76.9513 80.2969 77.0646 80.0536C77.1774 79.8107 77.3066 79.5769 77.4524 79.352C80.7953 74.1886 91.044 79.2545 94.8423 75.5443C95.6344 74.771 96.1286 73.618 96.1286 72.5098C96.1292 71.3875 95.548 70.3744 94.7689 69.5993C94.0913 68.9253 93.3074 68.5616 92.3608 68.4529C90.6896 68.2607 88.8557 68.3982 87.168 68.3977L43.6562 68.3994C42.2272 68.3806 40.5085 68.1896 39.1494 68.6568C38.4094 68.9112 37.7602 69.4248 37.4248 70.1441C37.077 70.8897 37.3257 72.0667 37.5007 72.8318C38.3989 76.7577 40.1129 81.2289 41.3661 85.1412C43.3359 91.2912 47.4457 102.352 47.4457 103.573C48.4964 98.8644 50.2904 94.251 51.8264 89.6758C52.937 86.3693 53.8925 82.9094 55.214 79.687C55.5372 78.899 55.9262 78.081 56.4539 77.4082C57.3248 76.2976 58.6575 75.6289 60.0519 75.4931C60.2423 75.4751 60.433 75.4667 60.6242 75.4679C60.8154 75.4694 61.0062 75.4804 61.1966 75.5008C61.3865 75.5211 61.5752 75.5511 61.7624 75.5907C61.9493 75.6302 62.1338 75.679 62.316 75.737C62.4985 75.795 62.6773 75.862 62.8525 75.938C63.028 76.0143 63.1992 76.0992 63.366 76.1924C63.5329 76.2856 63.6947 76.3871 63.8514 76.4968C64.0081 76.6065 64.1589 76.7238 64.3039 76.8488C65.4339 77.8083 66.1966 79.2221 66.2871 80.7123C66.3417 81.6102 66.0097 82.7355 65.7623 83.6052C64.1875 89.1405 62.0944 94.6171 60.2652 100.08C58.7662 104.555 57.2437 109.941 55.4591 114.208C55.0313 115.231 54.4707 116.17 53.7127 116.983C52.0985 118.714 49.8814 119.668 47.5251 119.751C45.1017 119.836 42.7308 119.03 40.96 117.352C40.0561 116.495 39.391 115.466 38.9012 114.325C38.0499 112.343 37.4795 110.161 36.8246 108.104L29.2878 84.4231C28.3862 81.6425 27.3652 78.8578 26.6329 76.0296C26.272 74.6358 26.0276 73.212 26.0024 71.77C25.9343 67.8706 27.332 64.1692 30.0554 61.3627C34.6408 56.6371 40.4292 56.9926 46.4838 57.0108C49.8379 57.0343 53.192 57.0216 56.5462 56.9726C56.3869 54.7685 56.5097 52.4738 56.5109 50.2609C56.5162 42.4891 57.0527 36.9193 62.2584 30.7075C66.6919 25.4174 72.7661 22.6612 79.5613 22.047Z" fill="#80C288"/>
<path d="M117.921 57.0149C121.78 57.1066 125.541 58.387 128.413 61.016C128.585 61.1747 128.753 61.3373 128.918 61.5037C129.081 61.6706 129.241 61.8414 129.396 62.0161C129.552 62.1909 129.703 62.3693 129.85 62.5515C129.997 62.7336 130.139 62.9191 130.277 63.1079C130.414 63.2971 130.547 63.4897 130.675 63.6856C130.803 63.881 130.926 64.0797 131.045 64.2814C131.163 64.4832 131.276 64.6877 131.384 64.8949C131.493 65.1021 131.596 65.3121 131.693 65.5248C131.791 65.7371 131.884 65.9518 131.971 66.1688C132.059 66.3859 132.141 66.6048 132.217 66.8258C132.294 67.0467 132.365 67.2694 132.43 67.4939C132.496 67.7184 132.556 67.9444 132.61 68.172C132.665 68.3992 132.713 68.6278 132.756 68.8578C132.8 69.0877 132.837 69.3185 132.869 69.55C132.9 69.7819 132.927 70.0144 132.947 70.2475C132.967 70.4802 132.982 70.7135 132.99 70.9473C133.046 72.4305 132.856 73.849 132.503 75.2857C132.005 77.3089 131.276 79.3038 130.633 81.2864L126.896 92.6862L123.459 103.352C122.734 105.601 122.087 107.928 121.142 110.095C120.394 111.808 119.402 113.401 118.12 114.766C115.006 118.079 111.215 119.584 106.697 119.728C101.094 119.906 95.4517 119.735 89.8423 119.747L81.9353 119.765C79.4074 119.774 76.7478 119.91 74.2657 119.387C73.9582 119.322 73.6534 119.247 73.3514 119.161C73.049 119.075 72.7501 118.98 72.4547 118.874C72.1589 118.768 71.8671 118.652 71.5791 118.525C71.2916 118.399 71.0086 118.264 70.73 118.118C70.4515 117.973 70.1785 117.818 69.9109 117.654C69.6429 117.49 69.3809 117.317 69.1247 117.135C68.8689 116.953 68.6193 116.762 68.376 116.563C68.1332 116.364 67.8973 116.157 67.6686 115.942C65.0995 113.497 63.5364 109.88 63.4924 106.339C63.4908 106.114 63.4945 105.89 63.5035 105.665C63.5129 105.441 63.5278 105.218 63.5482 104.994C63.5682 104.771 63.5936 104.548 63.6246 104.325C63.6555 104.103 63.692 103.882 63.7339 103.661C63.7758 103.441 63.823 103.221 63.8755 103.002C63.928 102.784 63.9856 102.567 64.0483 102.352C64.1113 102.136 64.1797 101.923 64.2533 101.711C64.3266 101.499 64.4049 101.288 64.4884 101.08C64.5722 100.872 64.6609 100.666 64.7546 100.462C64.8482 100.257 64.9467 100.056 65.0501 99.8569C65.1536 99.6575 65.2619 99.4608 65.3751 99.2669C65.4879 99.073 65.6056 98.882 65.7283 98.694C65.8505 98.5056 65.9772 98.3203 66.1084 98.1381C66.2397 97.9563 66.3754 97.7777 66.5157 97.6022C66.6555 97.4267 66.7997 97.2547 66.9481 97.0863C67.0966 96.9178 67.249 96.7531 67.4053 96.5921C70.562 93.3872 74.3169 92.4911 78.647 92.4623C86.1896 92.4876 93.777 92.2719 101.313 92.4647C102.892 92.5052 104.369 93.1222 105.452 94.2916C106.447 95.3663 106.927 96.8042 106.865 98.2598C106.859 98.3996 106.847 98.5389 106.831 98.6775C106.814 98.8166 106.793 98.9547 106.766 99.0918C106.739 99.2293 106.707 99.3655 106.67 99.5002C106.634 99.6354 106.592 99.7688 106.545 99.9004C106.498 100.032 106.447 100.162 106.39 100.291C106.334 100.419 106.273 100.544 106.207 100.668C106.142 100.791 106.071 100.912 105.997 101.03C105.923 101.149 105.844 101.264 105.76 101.377C105.677 101.489 105.59 101.599 105.499 101.704C105.407 101.811 105.312 101.913 105.214 102.012C105.115 102.111 105.012 102.206 104.906 102.298C104.801 102.389 104.692 102.476 104.579 102.56C104.467 102.643 104.351 102.722 104.233 102.797C104.115 102.872 103.994 102.942 103.871 103.008C103.748 103.074 103.622 103.135 103.494 103.192C103.366 103.248 103.236 103.3 103.104 103.347C101.092 104.085 98.4368 103.782 96.3125 103.782L84.2681 103.774C81.9441 103.758 79.3856 103.522 77.0886 103.842C76.4793 103.926 75.7677 104.139 75.3287 104.59C74.9462 104.982 74.8839 105.447 74.8974 105.969C74.915 106.624 74.9909 107.41 75.5232 107.865C76.0756 108.336 76.9999 108.467 77.6998 108.525C79.16 108.646 80.6784 108.56 82.1445 108.55C84.7374 108.528 87.3306 108.52 89.9239 108.525L100.024 108.548C102.075 108.552 104.16 108.63 106.204 108.481C107.621 108.379 108.963 108.098 109.923 106.959C110.493 106.282 110.881 105.396 111.188 104.575C111.839 102.833 112.336 101.013 112.903 99.2399L115.889 90.0543C117.688 84.536 119.739 78.9912 121.276 73.4C121.492 72.6115 121.757 71.6819 121.67 70.8627C121.314 67.5063 116.083 69.0205 113.741 67.1419C112.572 66.2041 111.739 64.708 111.605 63.2125C111.472 61.7212 112 60.2592 112.97 59.131C114.332 57.5467 115.935 57.146 117.921 57.0149Z" stroke="white" stroke-width="12" mask="url(#path-1-outside-1_1168_144)"/>
<path d="M79.5613 22.047C79.646 22.0379 79.7306 22.0301 79.8158 22.026C80.2208 22.0073 80.6259 21.9987 81.031 22.0002C81.4364 22.0016 81.8415 22.0132 82.2462 22.0348C82.6512 22.0564 83.0553 22.0881 83.4584 22.1298C83.8615 22.1716 84.2635 22.2233 84.6642 22.285C85.065 22.3467 85.4638 22.4183 85.8606 22.4999C86.2578 22.5814 86.6527 22.6727 87.0452 22.7739C87.4378 22.8751 87.8275 22.9859 88.2146 23.1065C88.6016 23.2271 88.9853 23.3572 89.3657 23.4968C89.7465 23.6364 90.1234 23.7854 90.4963 23.9438C90.8696 24.1022 91.2386 24.2697 91.6034 24.4465C91.9681 24.6232 92.3283 24.8089 92.684 25.0035C93.0393 25.1981 93.3897 25.4015 93.7352 25.6136C94.0808 25.8256 94.4208 26.0462 94.7553 26.2751C95.0899 26.5041 95.4184 26.7412 95.7408 26.9866C96.0636 27.2319 96.3801 27.4851 96.6904 27.7461C97.0002 28.0072 97.3036 28.2758 97.6006 28.5519C102.769 33.3719 105.163 39.5306 105.403 46.5084C105.481 48.7713 105.552 50.9425 103.876 52.6995C102.803 53.8248 101.381 54.4952 99.8177 54.4988C98.6512 54.5017 97.4454 54.1862 96.4965 53.4922C93.4573 51.2704 94.4962 47.026 93.8075 43.79C93.7429 43.4762 93.6669 43.165 93.5795 42.8563C93.4922 42.548 93.3938 42.2432 93.2845 41.942C93.1752 41.6407 93.055 41.3439 92.9237 41.0513C92.7929 40.7588 92.6515 40.4714 92.4995 40.1892C92.3479 39.9069 92.1861 39.6306 92.0141 39.3601C91.8421 39.0896 91.6606 38.8257 91.4694 38.5685C91.2782 38.3112 91.0778 38.0612 90.8683 37.8184C90.6591 37.5757 90.4413 37.3409 90.2148 37.114C90.0597 36.9631 89.9008 36.8161 89.7383 36.673C89.5757 36.5299 89.4098 36.3909 89.2406 36.2561C89.0713 36.1212 88.8988 35.9906 88.7229 35.8643C88.547 35.738 88.3681 35.6162 88.1864 35.4987C88.0046 35.3813 87.8199 35.2684 87.6323 35.1601C87.445 35.0518 87.255 34.9483 87.0623 34.8494C86.8695 34.7505 86.6746 34.6565 86.4776 34.5672C86.2801 34.478 86.0807 34.3938 85.8794 34.3144C85.678 34.2351 85.4747 34.1607 85.2694 34.0915C85.0646 34.0222 84.8579 33.9581 84.6495 33.8991C84.4411 33.8401 84.2315 33.7862 84.0208 33.7376C83.8096 33.6889 83.5975 33.6456 83.3844 33.6074C83.1713 33.5693 82.9574 33.5365 82.7427 33.5089C82.528 33.4814 82.3128 33.4592 82.0969 33.4423C81.8811 33.4255 81.665 33.414 81.4488 33.4078C81.2321 33.4016 81.0157 33.4009 80.7994 33.4054C77.2385 33.451 73.969 34.8194 71.4869 37.3799C67.9054 41.0734 67.7532 45.2632 67.7538 50.0593C67.753 52.3898 67.771 54.7201 67.8078 57.0502L82.6017 57.0191C86.7626 57.0173 91.4095 56.5754 95.4593 57.619C95.7978 57.706 96.1331 57.8037 96.4653 57.9122C96.7975 58.0211 97.1258 58.1406 97.4501 58.2707C97.7741 58.4011 98.0938 58.542 98.4091 58.6932C98.7241 58.8444 99.0338 59.0058 99.3382 59.1774C99.6429 59.3486 99.9416 59.5297 100.234 59.7209C100.527 59.9121 100.813 60.1125 101.092 60.322C101.372 60.532 101.644 60.7508 101.91 60.9784C102.175 61.206 102.432 61.4421 102.682 61.6865C102.863 61.862 103.039 62.042 103.212 62.2265C103.384 62.4106 103.551 62.5991 103.714 62.7918C103.877 62.9845 104.035 63.181 104.188 63.3812C104.341 63.5817 104.489 63.7859 104.633 63.9935C104.776 64.2011 104.913 64.4123 105.046 64.6269C105.178 64.8416 105.306 65.0592 105.428 65.2798C105.549 65.5007 105.666 65.7244 105.777 65.9508C105.888 66.1776 105.993 66.4068 106.092 66.6383C106.192 66.8702 106.286 67.1043 106.374 67.3405C106.461 67.5772 106.544 67.8155 106.62 68.0557C106.696 68.2962 106.766 68.5385 106.83 68.7825C106.895 69.0262 106.953 69.2714 107.005 69.5182C107.057 69.765 107.103 70.013 107.143 70.2622C107.183 70.5113 107.217 70.7613 107.244 71.012C107.272 71.2627 107.293 71.514 107.308 71.7659C107.323 72.0174 107.332 72.2693 107.335 72.5216C107.338 72.7754 107.334 73.0291 107.324 73.2825C107.315 73.536 107.299 73.789 107.277 74.0417C107.255 74.2944 107.226 74.5465 107.191 74.798C107.156 75.0491 107.115 75.2994 107.068 75.549C107.021 75.7981 106.968 76.0461 106.908 76.2929C106.849 76.5393 106.783 76.7843 106.712 77.028C106.64 77.2713 106.563 77.5128 106.479 77.7525C106.396 77.9919 106.307 78.2291 106.212 78.4641C106.116 78.6996 106.015 78.9323 105.909 79.1622C105.802 79.3926 105.69 79.62 105.572 79.8444C105.454 80.0689 105.33 80.2904 105.201 80.509C105.072 80.7276 104.938 80.9429 104.798 81.1548C104.659 81.3668 104.514 81.575 104.364 81.7795C104.214 81.9843 104.059 82.1853 103.899 82.3824C103.739 82.579 103.575 82.7719 103.406 82.9612C103.236 83.15 103.062 83.3345 102.884 83.5147C99.6525 86.8083 95.6567 88.0664 91.1227 88.1116C88.5454 88.1375 82.8514 88.4824 80.5879 87.8854C79.6242 87.6315 78.7445 87.0897 78.0423 86.387C77.0005 85.3445 76.5022 83.8449 76.5269 82.3829C76.5316 82.115 76.5551 81.8488 76.5974 81.5844C76.6393 81.3195 76.6994 81.059 76.7778 80.8028C76.8558 80.5466 76.9513 80.2969 77.0646 80.0536C77.1774 79.8107 77.3066 79.5769 77.4524 79.352C80.7953 74.1886 91.044 79.2545 94.8423 75.5443C95.6344 74.771 96.1286 73.618 96.1286 72.5098C96.1292 71.3875 95.548 70.3744 94.7689 69.5993C94.0913 68.9253 93.3074 68.5616 92.3608 68.4529C90.6896 68.2607 88.8557 68.3982 87.168 68.3977L43.6562 68.3994C42.2272 68.3806 40.5085 68.1896 39.1494 68.6568C38.4094 68.9112 37.7602 69.4248 37.4248 70.1441C37.077 70.8897 37.3257 72.0667 37.5007 72.8318C38.3989 76.7577 40.1129 81.2289 41.3661 85.1412C43.3359 91.2912 47.4457 102.352 47.4457 103.573C48.4964 98.8644 50.2904 94.251 51.8264 89.6758C52.937 86.3693 53.8925 82.9094 55.214 79.687C55.5372 78.899 55.9262 78.081 56.4539 77.4082C57.3248 76.2976 58.6575 75.6289 60.0519 75.4931C60.2423 75.4751 60.433 75.4667 60.6242 75.4679C60.8154 75.4694 61.0062 75.4804 61.1966 75.5008C61.3865 75.5211 61.5752 75.5511 61.7624 75.5907C61.9493 75.6302 62.1338 75.679 62.316 75.737C62.4985 75.795 62.6773 75.862 62.8525 75.938C63.028 76.0143 63.1992 76.0992 63.366 76.1924C63.5329 76.2856 63.6947 76.3871 63.8514 76.4968C64.0081 76.6065 64.1589 76.7238 64.3039 76.8488C65.4339 77.8083 66.1966 79.2221 66.2871 80.7123C66.3417 81.6102 66.0097 82.7355 65.7623 83.6052C64.1875 89.1405 62.0944 94.6171 60.2652 100.08C58.7662 104.555 57.2437 109.941 55.4591 114.208C55.0313 115.231 54.4707 116.17 53.7127 116.983C52.0985 118.714 49.8814 119.668 47.5251 119.751C45.1017 119.836 42.7308 119.03 40.96 117.352C40.0561 116.495 39.391 115.466 38.9012 114.325C38.0499 112.343 37.4795 110.161 36.8246 108.104L29.2878 84.4231C28.3862 81.6425 27.3652 78.8578 26.6329 76.0296C26.272 74.6358 26.0276 73.212 26.0024 71.77C25.9343 67.8706 27.332 64.1692 30.0554 61.3627C34.6408 56.6371 40.4292 56.9926 46.4838 57.0108C49.8379 57.0343 53.192 57.0216 56.5462 56.9726C56.3869 54.7685 56.5097 52.4738 56.5109 50.2609C56.5162 42.4891 57.0527 36.9193 62.2584 30.7075C66.6919 25.4174 72.7661 22.6612 79.5613 22.047Z" stroke="white" stroke-width="12" mask="url(#path-1-outside-1_1168_144)"/>
</g>
</g>
<defs>
<filter id="filter0_d_1168_144" x="0" y="0" width="159" height="149.809" filterUnits="userSpaceOnUse" color-interpolation-filters="sRGB">
<feFlood flood-opacity="0" result="BackgroundImageFix"/>
<feColorMatrix in="SourceAlpha" type="matrix" values="0 0 0 0 0 0 0 0 0 0 0 0 0 0 0 0 0 0 127 0" result="hardAlpha"/>
<feOffset dy="4"/>
<feGaussianBlur stdDeviation="10"/>
<feComposite in2="hardAlpha" operator="out"/>
<feColorMatrix type="matrix" values="0 0 0 0 0 0 0 0 0 0 0 0 0 0 0 0 0 0 0.25 0"/>
<feBlend mode="normal" in2="BackgroundImageFix" result="effect1_dropShadow_1168_144"/>
<feBlend mode="normal" in="SourceGraphic" in2="effect1_dropShadow_1168_144" result="shape"/>
</filter>
</defs>
</svg>
